<svg width="280" height="84" viewBox="0 0 280 84" fill="none" xmlns="http://www.w3.org/2000/svg">
<path d="M96.8331 19.2579C95.3254 19.6723 94.8652 20.9193 94.6435 22.321C94.1958 25.1528 95.4681 28.99 99.1218 27.839C100.826 27.302 100.952 25.6723 100.955 24.1454C100.959 21.5815 100.237 18.322 96.8331 19.2579ZM71.6443 19.7149C67.3414 20.5661 68.8383 29.3737 73.4751 28.1506C74.6787 27.8332 75.2127 26.6146 75.4822 25.5137C76.0982 22.9979 74.9949 19.052 71.6443 19.7149ZM70.0412 30.8773C65.5519 31.847 64.578 36.2475 64.0254 40.1093C63.1028 46.5585 63.4101 54.3103 68.2182 59.2651C69.8527 60.9492 72.1969 62.521 74.621 62.6654C75.6166 62.7247 76.9715 62.394 76.5392 61.0895C75.9486 59.307 73.4231 57.9676 72.2438 56.5295C69.351 53.0017 68.5631 49.5684 68.8756 45.1265C69.019 43.0904 69.1147 40.8805 69.9219 38.969C70.1451 38.4403 70.7357 37.1881 71.4827 37.323C72.283 37.4676 72.2921 38.8371 72.3482 39.4251C72.544 41.4765 72.7025 43.5411 72.9883 45.5826C73.7586 51.0897 74.8863 56.6782 78.4691 61.0904C80.6837 63.8177 84.5247 65.7174 88.1279 64.5559C89.4972 64.1144 89.8453 62.6186 88.5643 61.7949C87.6937 61.2348 86.5595 61.2142 85.6124 60.8327C84.571 60.4133 83.6525 59.6295 82.9067 58.8064C79.2028 54.7188 78.6663 48.7759 78.3054 43.5301C78.1323 41.0153 78.1959 38.4501 77.4998 36.0043C76.5239 32.5754 73.7785 30.07 70.0412 30.8773ZM99.1227 30.8795C98.3511 30.9467 97.5473 31.172 96.8329 31.4646C91.7738 33.5365 93.0793 39.2864 92.6721 43.5301C92.398 46.3886 91.584 49.5248 90.0328 51.9682C88.8638 53.8095 86.9868 55.0166 85.8171 56.7779C85.2964 57.5615 85.2788 58.5964 86.3129 58.9066C88.039 59.4242 90.2398 58.1423 91.5661 57.1772C96.2139 53.7951 96.6224 48.6926 97.4635 43.5301C97.7186 41.9638 97.8335 40.2386 98.382 38.742C98.6096 38.1206 99.0362 37.3734 99.8033 37.7721C101.565 38.6876 102.085 42.011 102.329 43.7582C103.068 49.0703 100.733 54.4884 96.8326 58.1052C95.5164 59.3257 93.8702 59.913 92.507 61.0076C91.4977 61.8181 91.0436 63.9147 92.7211 64.231C94.7708 64.6173 97.1612 63.332 98.8938 62.4054C106.71 58.2251 108.251 47.8402 107.002 39.8812C106.404 36.0657 103.852 30.4682 99.1227 30.8795Z" fill="white"/>
<path d="M133.839 29.5835C131.051 31.1256 133.635 35.6655 136.542 34.0075C139.382 32.3872 136.757 27.9691 133.839 29.5835Z" fill="white"/>
<path d="M140.685 36.1921H138.624V40.069H140.685V49.1912C141.684 49.1912 143.854 49.5995 144.668 48.9568C145.246 48.5014 145.035 47.3219 145.035 46.6826V40.069H148.241V36.1921H145.035C145.139 34.3051 146.167 33.9774 147.783 34.5957C148.141 33.769 149.078 31.9204 148.766 31.0357C148.546 30.4104 147.665 30.1851 147.096 30.0444C145.489 29.6473 143.82 29.9837 142.521 31.0357C140.894 32.3532 140.685 34.2506 140.685 36.1921ZM119.389 31.1748V49.1912H131.983V44.8582H123.739V31.1748H119.389ZM163.812 31.1748V49.1912H171.14C172.747 49.1912 174.507 49.2658 175.945 48.4172C179.337 46.4169 179.253 41.0216 175.262 39.841C176.049 39.2651 176.802 38.6904 177.227 37.785C178.291 35.52 177.104 32.475 174.804 31.5427C173.517 31.0211 172.041 31.1748 170.682 31.1748H163.812Z" fill="white"/>
<path d="M162.896 42.1209C161.515 42.3802 160.183 42.5761 158.775 42.577C158.222 45.3435 156.105 45.5164 153.966 44.4014C156.322 42.5077 159.598 41.8087 162.209 40.2964C160.644 34.6543 152.504 32.5355 149.417 38.2528C148.651 39.6736 148.557 41.4591 148.765 43.0331C149.672 49.8992 158.988 51.7211 162.312 45.5417C162.889 44.4685 162.896 43.3049 162.896 42.1209ZM193.123 42.1209C192.002 42.3311 190.305 42.2319 189.302 42.7145C188.696 43.0062 188.6 43.8685 188.183 44.3526C186.973 45.7595 185.559 45.1134 184.192 44.4014C185.233 43.5647 186.423 43.1565 187.627 42.6032C189.206 41.8775 190.759 41.002 192.436 40.5245C191.501 35.1143 184.466 32.9357 180.636 36.9442C178.861 38.8018 178.623 41.551 179.209 43.9453C180.07 47.4601 183.526 49.9491 187.169 49.3443C190.27 48.8298 194.076 45.5793 193.123 42.1209Z" fill="white"/>
<path d="M197.703 36.417C197.161 34.6589 195.593 35.0487 194.039 35.0487V49.1881H198.161V44.1709C198.161 43.1939 198.036 42.1074 198.494 41.2071C198.892 40.4255 199.582 39.82 200.45 39.6353C200.906 39.5384 201.492 39.6645 201.887 39.3699C202.812 38.6802 202.657 36.1011 202.741 35.0487C200.556 34.7741 199.506 35.1953 197.703 36.417ZM212.129 46.9076C212.119 48.0814 211.986 49.1696 211.135 50.0675C209.6 51.6867 207.479 50.5377 206.862 48.732C204.68 48.8269 201.236 49.4007 203.326 52.1494C203.619 52.5348 203.967 52.8728 204.347 53.1725C207.95 56.0125 213.996 54.9928 215.718 50.5564C216.796 47.7783 216.251 44.1303 216.251 41.2062V37.3292C216.251 36.7926 216.359 36.0751 216.113 35.5773C215.73 34.8028 213.785 34.8582 213.159 35.2827C212.715 35.5837 212.547 36.1764 212.358 36.6451C211.593 35.9862 210.835 35.3324 209.839 35.0619C209.095 34.8598 208.314 34.7901 207.549 34.8867C200.055 35.8355 201.275 49.2488 209.152 48.1771C210.314 48.0191 211.169 47.5491 212.129 46.9076ZM133.128 35.0487V49.1881H137.25V35.0487H133.128Z" fill="white"/>
<path d="M168.163 35.0496V38.2424C169.323 38.2424 171.223 38.6022 172.254 38.0079C173.259 37.4287 173.248 35.8986 172.252 35.3185C171.199 34.705 169.345 35.0496 168.163 35.0496Z" fill="#377FAA"/>
<path d="M152.821 41.6638C154.282 41.1968 155.974 40.5749 157.172 39.6113C155.1 38.3579 152.96 39.1012 152.821 41.6638Z" fill="#377FAA"/>
<path d="M183.047 41.6655C184.575 41.249 185.926 40.4107 187.398 39.841C185.655 37.8738 183.174 39.3295 183.047 41.6655ZM208.703 39.1245C205.861 40.3195 206.918 46.3723 210.296 45.0808C213.472 43.8667 212.074 37.7076 208.703 39.1245Z" fill="#377FAA"/>
<path d="M168.163 41.4371V45.086C169.543 45.086 171.475 45.4258 172.739 44.7854C174.217 44.0362 174.017 42.1981 172.51 41.6063C171.275 41.121 169.475 41.4371 168.163 41.4371Z" fill="#377FAA"/>
</svg>
